inDegrees=no
num_controls=7
num_derivatives=13
num_iterations=57
num_multipliers=7
num_parameters=0
num_slacks=7
num_states=26
objective=0.445313
objective_accelerations=0.056534
objective_balance=0.002321
objective_effort=0.021753
objective_height=0.359290
objective_ligament=0.005415
solver_duration=825.923448
status=Solve_Succeeded
success=true
DataType=double
version=3
OpenSimVersion=4.5
endheader
time	/jointset/ground_pelvis/pelvis_tilt/value	/jointset/ground_pelvis/pelvis_tx/value	/jointset/ground_pelvis/pelvis_ty/value	/jointset/hip_l/hip_flexion_l/value	/jointset/hip_l/hip_adduction_l/value	/jointset/hip_l/hip_rotation_l/value	/jointset/back/lumbar_extension/value	/jointset/patellofemoral_l/patellar_flexion_l/value	/jointset/knee_l/knee_flexion_l/value	/jointset/knee_l/knee_adduction_l/value	/jointset/knee_l/knee_rotation_l/value	/jointset/ankle_l/ankle_angle_l/value	/jointset/subtalar_l/subtalar_angle_l/value	/jointset/ground_pelvis/pelvis_tilt/speed	/jointset/ground_pelvis/pelvis_tx/speed	/jointset/ground_pelvis/pelvis_ty/speed	/jointset/hip_l/hip_flexion_l/speed	/jointset/hip_l/hip_adduction_l/speed	/jointset/hip_l/hip_rotation_l/speed	/jointset/back/lumbar_extension/speed	/jointset/patellofemoral_l/patellar_flexion_l/speed	/jointset/knee_l/knee_flexion_l/speed	/jointset/knee_l/knee_adduction_l/speed	/jointset/knee_l/knee_rotation_l/speed	/jointset/ankle_l/ankle_angle_l/speed	/jointset/subtalar_l/subtalar_angle_l/speed	/forceset/tau_hip_flexion_l	/forceset/tau_hip_adduction_l	/forceset/tau_hip_rotation_l	/forceset/tau_knee_flexion_l	/forceset/tau_ankle_angle_l	/forceset/tau_subtalar_angle_l	/forceset/tau_lumbar_extension	lambda_cid13_p0	lambda_cid13_p1	lambda_cid13_p2	lambda_cid13_p3	lambda_cid13_p4	lambda_cid13_p5	lambda_cid14_p0	/jointset/ground_pelvis/pelvis_tilt/accel	/jointset/ground_pelvis/pelvis_tx/accel	/jointset/ground_pelvis/pelvis_ty/accel	/jointset/hip_l/hip_flexion_l/accel	/jointset/hip_l/hip_adduction_l/accel	/jointset/hip_l/hip_rotation_l/accel	/jointset/back/lumbar_extension/accel	/jointset/patellofemoral_l/patellar_flexion_l/accel	/jointset/knee_l/knee_flexion_l/accel	/jointset/knee_l/knee_adduction_l/accel	/jointset/knee_l/knee_rotation_l/accel	/jointset/ankle_l/ankle_angle_l/accel	/jointset/subtalar_l/subtalar_angle_l/accel	gamma_cid13_p0	gamma_cid13_p1	gamma_cid13_p2	gamma_cid13_p3	gamma_cid13_p4	gamma_cid13_p5	gamma_cid14_p0
0.5	-0.2733811075111747	-0.000587089630506636	0.7648027207991116	1.00738014388959	-0.4412338895688878	-0.2172476640569411	-0.2490887725831825	0.8612692229032556	0.8612692229032226	-0.1092599730327381	-0.1605223379621659	0.1935665946966815	0.0110529190278956	-0.5848909226940932	-0.12600493686136	-0.5187964194268359	2.212601766896335	-0.2145109067610974	0.7557537890111731	-0.1470582707806468	2.110217207777026	2.110217207776725	0.1805147137440468	-0.07355269394492514	0.6740632907178319	0.1236001383559516	-0.1383743765995684	0.06151504005007451	-0.01322443705125511	-0.2367676701985416	0.04681330777328688	0.008904858354256921	0.146625087570963	-18.05564198143787	-2.653563010714071	2.311755282863038	-3.281556474373845	-522.6521130835251	-34.14030232811775	-22.57130562921211	0.7404978159029417	0.4846862439971092	-0.4568695824698046	-1.374078608443692	0.7036346839826685	0.07060450121821638	0.8565581857911493	-1.474227248391699	-1.474227248391701	-0.2043581016455429	0.4893532162035113	-0.6532539605697785	0.5282826475408173	-6.489236254454068e-07	3.453695664941536e-08	4.131788566179175e-06	3.228288064469757e-07	-7.708084148337857e-07	-2.737240780617029e-07	-5.177962488833019e-07
0.51	-0.2791918518731933	-0.001822755429988894	0.7595930365420877	1.029433667452692	-0.4433446253729642	-0.2096877630377802	-0.250516926632165	0.8822947989810926	0.8822947989810056	-0.1074673297584147	-0.1612348778008067	0.2002732958318343	0.01231372500746063	-0.577196072448017	-0.1211189580292537	-0.523029761795229	2.197839272602845	-0.2075914816830993	0.7557270470661781	-0.1385580977188663	2.094654800217684	2.094654800217697	0.1783478513064075	-0.06921076647081592	0.6671997831306575	0.1285949585399843	-0.1431200755813863	0.06254351576302219	-0.01312975801716582	-0.2397773637614136	0.04463959892015668	0.00915593967457644	0.1503854081813012	-18.9272553401299	-2.500072374381862	2.161724985305891	-2.966189392533455	-526.1438132136486	-33.88922590246965	-21.57786342370428	0.7931725347317473	0.4920065330844769	-0.3901167731920827	-1.566989012105274	0.6922425298363325	-0.114718905604388	0.8489130622946928	-1.633621919893392	-1.633621919846277	-0.172639331808261	0.3691037072790288	-0.7144507039426129	0.4896813412037823	-6.294392048286211e-07	5.326786290027016e-08	4.17010857316856e-06	3.315115816555781e-07	-7.45612869767132e-07	-1.452965530821988e-07	-5.237558390841088e-07
0.52	-0.2849238089516256	-0.003009270875098055	0.7543443088195453	1.051331635238295	-0.4453849377042455	-0.2021432105107109	-0.251859645711374	0.9031574761012294	0.9031574761012459	-0.1056863129118027	-0.1619115001259799	0.2069090515818823	0.01362539911633929	-0.5691334659709577	-0.1161748659867406	-0.5266051125304448	2.181490611417192	-0.200426212199968	0.7526840905913268	-0.1299712768200845	2.077637416250823	2.077637416251151	0.1781894281893486	-0.06636919122610258	0.6598742136974333	0.1337737642187765	-0.1478657745640122	0.06357199147586348	-0.01303507898121824	-0.2427870573244199	0.04246589006705146	0.009407020994747557	0.1541457287908856	-19.80056276909411	-2.34625914818579	2.011618093699302	-2.696471674775048	-529.6792243493576	-33.70445019658302	-20.59267244506322	0.8140490620997241	0.4963088860782157	-0.3252712558344337	-1.691311986876624	0.752803565009542	-0.5326384047530666	0.8738877531917072	-1.765222529895379	-1.765222529895337	0.1973297624706384	0.1892827703242602	-0.7456663297800807	0.5650797464925539	-5.921131449131395e-07	2.014313322921577e-07	4.170623851956181e-06	3.640620536512594e-07	-7.293092477574696e-07	-9.762212493703245e-09	-5.038225019787073e-07
0.53	-0.2905735792990366	-0.004146093938939447	0.7490631516311513	1.073058434261797	-0.4473524903923293	-0.1946434424857038	-0.2531160541738296	0.9238426518399825	0.923842651840015	-0.1038971434725591	-0.1625664285068424	0.2134692570591712	0.01498962022849911	-0.5607766737773388	-0.1111833759090499	-0.5295115880712041	2.163610780142168	-0.1930632374187867	0.746803394539957	-0.1213041442139097	2.059145035007743	2.059145035007845	0.1799531896077499	-0.06482030391677633	0.6520880339131009	0.1390736708238563	-0.1522883138680887	0.06411448660096718	-0.01285588350818966	-0.2463488501876147	0.04084214857089112	0.009573115707769793	0.1576434414720907	-20.50768348944953	-2.178326701668194	1.852050964291212	-2.476052249904242	-533.2714525089129	-33.57084546055655	-19.61933719312167	0.8529986603662898	0.5016009305086934	-0.256269290923396	-1.875181395806218	0.7306086349855453	-0.6861655805264207	0.8640667340733718	-1.92905172569446	-1.929051725728492	0.2123564481868248	0.1079403826220138	-0.8068800264908725	0.5123934254108681	-5.567815016300037e-07	3.293544734840419e-07	4.136274474439266e-06	3.900169830430382e-07	-7.118198521013017e-07	1.097713146062388e-07	-4.829644309457688e-07
